<svg id="Livello_1" data-name="Livello 1" xmlns="http://www.w3.org/2000/svg" xmlns:xlink="http://www.w3.org/1999/xlink" viewBox="0 0 824 330"><defs><style>.cls-1{fill:url(#Sfumatura_senza_nome_8);}.cls-2{fill:none;stroke:#1d1d1d;stroke-miterlimit:10;}.cls-3{isolation:isolate;fill:url(#Sfumatura_senza_nome_5);}.cls-4{fill:#fffcf5;}</style><linearGradient id="Sfumatura_senza_nome_8" y1="165" x2="824" y2="165" gradientUnits="userSpaceOnUse"><stop offset="0" stop-color="#ffda00"/><stop offset="1" stop-color="#ffc200"/></linearGradient><linearGradient id="Sfumatura_senza_nome_5" x1="147.5835" y1="165" x2="722.6387" y2="165" gradientUnits="userSpaceOnUse"><stop offset="0" stop-color="#454545"/><stop offset="1" stop-color="#1d1d1d"/></linearGradient></defs><g id="Raggruppa_39" data-name="Raggruppa 39"><rect class="cls-1" width="824" height="330" rx="75"/><rect class="cls-2" x="0.5" y="0.5" width="823" height="329" rx="74.5"/><path id="Alkejfij_bao_ejfpoae_kfpojgao_skj_nglskjrp_tgjpoai_rser_srt_gapò_aeotjf_fjab_srtgwrew_dr." data-name="Alkejfij bao ejfpoae kfpojgao skj nglskjrp tgjpoai rser srt gapò aeotjf fjab srtgwrew dr." class="cls-3" d="M156.5625,111.5664l-2.0449,7.4414h-6.7759l8.8447-28.9814h8.5757l9.0225,28.9814h-7.06l-2.2285-7.4414Zm7.3623-4.8818-1.8047-6.1592c-.4975-1.7129-1.0117-3.8848-1.4565-5.5811h-.09c-.4257,1.7051-.8623,3.9053-1.3271,5.5889l-1.7334,6.1514Zm13.6328-1.65c0-2.7666-.0815-5.1-.1719-7.0733h5.6866l.3027,2.9473h.0864a8.1305,8.1305,0,0,1,7.0088-3.42c4.6045,0,8.7437,4.0049,8.7437,10.72,0,7.6738-4.8882,11.2725-9.5713,11.2725a6.49,6.49,0,0,1-5.4551-2.4h-.0859v10.4414h-6.544Zm6.544,4.9648a6.3136,6.3136,0,0,0,.1318,1.3653,3.9671,3.9671,0,0,0,3.8247,3.1035c2.8247,0,4.5142-2.3819,4.5142-5.9532,0-3.3466-1.4971-5.9033-4.41-5.9033A4.0994,4.0994,0,0,0,184.25,105.92a4.6662,4.6662,0,0,0-.1484,1.17Zm24.3427.59c.1949,2.7148,2.8785,4.0049,5.9317,4.0049a17.5081,17.5081,0,0,0,5.791-.8926l.8828,4.4277a20.4117,20.4117,0,0,1-7.625,1.33c-7.1294,0-11.2231-4.1514-11.2231-10.71,0-5.3476,3.3344-11.2607,10.6079-11.2607,6.8208,0,9.3974,5.3017,9.3974,10.5088a12.5408,12.5408,0,0,1-.2343,2.5918Zm7.6812-4.4825c.0112-1.5761-.6924-4.2666-3.6694-4.2666-2.7647,0-3.8843,2.5254-4.0655,4.2666Zm9.9809-17.6279h6.5523v30.5293h-6.5523Zm11.8243,0h6.5527v30.5293h-6.5527Zm16.8672,22.11c.1948,2.7148,2.8784,4.0049,5.9316,4.0049a17.5081,17.5081,0,0,0,5.791-.8926l.8828,4.4277a20.4117,20.4117,0,0,1-7.625,1.33c-7.1294,0-11.2231-4.1514-11.2231-10.71,0-5.3476,3.3344-11.2607,10.6079-11.2607,6.8208,0,9.3974,5.3017,9.3974,10.5088a12.5408,12.5408,0,0,1-.2343,2.5918Zm7.6811-4.4825c.0112-1.5761-.6924-4.2666-3.6694-4.2666-2.7647,0-3.8843,2.5254-4.0655,4.2666Zm6.7412,18.0313a71.5777,71.5777,0,0,0,3.1348-12.2188l6.6484-.43a59.5234,59.5234,0,0,1-5.4131,12.2636Zm23.1734-5.13V102.7871h-2.7828V97.9609h2.7828V97.08c0-5.7871,4.4882-9.0752,10.9892-9.0752a13.76,13.76,0,0,1,6.1821,1.3027l-1.2514,4.9229a10.5071,10.5071,0,0,0-4.7788-1.0606c-3.4336,0-4.6392,1.7608-4.6392,4.06v.7314H311.689v21.0469h-6.5528V102.7871h-6.19v16.2207Zm44.623-21.0469c-.0991,1.3594-.1807,3.1377-.1807,6.2735v11.7129c0,4.042-.8144,7.3525-3.2,9.4629-2.3046,1.999-5.4345,2.5849-8.53,2.5849a16.6656,16.6656,0,0,1-7.5659-1.6133l1.2988-4.9589a13.0022,13.0022,0,0,0,6.0957,1.5751c3.0947,0,5.46-1.6533,5.46-5.54v-1.3535h-.0864a6.77,6.77,0,0,1-5.68,2.7168c-5.19,0-8.8979-4.2207-8.8979-10.2451,0-6.7891,4.3716-11.0879,9.5361-11.0879a6.3144,6.3144,0,0,1,5.7637,2.9892h.0859l.22-2.5166Zm-6.7246,8.5782a5.0372,5.0372,0,0,0-.1309-1.209,3.5527,3.5527,0,0,0-3.518-2.8965c-2.3809,0-4.28,2.1748-4.28,5.9912,0,3.1348,1.55,5.5869,4.269,5.5869a3.58,3.58,0,0,0,3.4727-2.6416,6.8914,6.8914,0,0,0,.1875-1.7334Zm11.7842-18.0606h6.5522v30.5293h-6.5522Zm18.562,3.6406a3.2446,3.2446,0,0,1-3.5171,3.2676,3.2788,3.2788,0,1,1,3.5171-3.2676ZM353.9,119.0078V97.9609h6.5527v21.0469Zm32.54-10.7334c0,7.69-5.4477,11.2061-11.0913,11.2061-6.123,0-10.8672-4.0469-10.8672-10.8428,0-6.792,4.4805-11.1494,11.2442-11.1494C382.1611,97.4883,386.44,101.9189,386.44,108.2744Zm-15.2148.2149c0,3.5918,1.5176,6.3173,4.3057,6.3173,2.5512,0,4.1655-2.5537,4.1655-6.35,0-3.1036-1.1958-6.294-4.16-6.294C372.4165,102.1621,371.2256,105.37,371.2256,108.4893ZM419.56,88.4785v24.2432c0,2.3887.082,4.8769.1728,6.2861H413.916l-.2754-3.082H413.55a7.34,7.34,0,0,1-6.5879,3.5547c-4.9663,0-8.9834-4.2647-8.9834-10.8067-.0322-7.0664,4.4068-11.1855,9.417-11.1855,2.6006,0,4.5928.9248,5.5342,2.3789h.0859V88.4785Zm-6.544,18.416a6.6972,6.6972,0,0,0-.0849-1.1865,3.8847,3.8847,0,0,0-3.7935-3.1982c-3,0-4.5171,2.6582-4.5171,5.9746,0,3.542,1.7456,5.7793,4.4712,5.7793a3.8612,3.8612,0,0,0,3.7857-3.1348,6.432,6.432,0,0,0,.1386-1.4805Zm18.5283-14.7754a3.2441,3.2441,0,0,1-3.5166,3.2676,3.2787,3.2787,0,1,1,3.5166-3.2676Zm-6.7373,26.8887V97.9609h6.5528v21.0469Zm27.42-7.4414-2.0459,7.4414h-6.7754L452.25,90.0264h8.5762l9.0215,28.9814h-7.06l-2.2285-7.4414Zm7.3623-4.8818-1.8057-6.1592c-.4971-1.7129-1.0117-3.8848-1.4561-5.5811h-.0908c-.4248,1.7051-.8623,3.9053-1.3271,5.5889l-1.7324,6.1514Zm13.6318-1.65c0-2.7666-.0811-5.1-.1719-7.0733h5.6866l.3037,2.9473h.0859a8.1312,8.1312,0,0,1,7.0088-3.42c4.6045,0,8.7441,4.0049,8.7441,10.72,0,7.6738-4.8886,11.2725-9.5713,11.2725a6.4868,6.4868,0,0,1-5.455-2.4h-.086v10.4414h-6.5449Zm6.5449,4.9648a6.3134,6.3134,0,0,0,.1319,1.3653,3.9656,3.9656,0,0,0,3.8242,3.1035c2.8242,0,4.5137-2.3819,4.5137-5.9532,0-3.3466-1.4971-5.9033-4.4092-5.9033a4.1,4.1,0,0,0-3.9131,3.3086,4.6889,4.6889,0,0,0-.1475,1.17Zm40.0586-1.7246c0,7.69-5.4482,11.2061-11.0918,11.2061-6.122,0-10.8672-4.0469-10.8672-10.8428,0-6.792,4.4805-11.1494,11.2452-11.1494C515.5449,97.4883,519.8242,101.9189,519.8242,108.2744Zm-15.2148.2149c0,3.5918,1.5176,6.3173,4.3056,6.3173,2.5508,0,4.1651-2.5537,4.1651-6.35,0-3.1036-1.1953-6.294-4.1592-6.294C505.8,102.1621,504.6094,105.37,504.6094,108.4893ZM523.877,88.4785H530.43v30.5293H523.877Zm11.8242,0h6.5527v30.5293h-6.5527Zm32.583,19.7959c0,7.69-5.4483,11.2061-11.0918,11.2061-6.1221,0-10.8672-4.0469-10.8672-10.8428,0-6.792,4.4805-11.1494,11.2451-11.1494C564.0049,97.4883,568.2842,101.9189,568.2842,108.2744Zm-15.2149.2149c0,3.5918,1.5176,6.3173,4.3057,6.3173,2.5508,0,4.165-2.5537,4.165-6.35,0-3.1036-1.1953-6.294-4.1591-6.294C554.26,102.1621,553.0693,105.37,553.0693,108.4893Zm15.2539,15.6484a71.6149,71.6149,0,0,0,3.1348-12.2188l6.6484-.43a59.4752,59.4752,0,0,1-5.413,12.2636Zm-417.957,51.87V159.7871h-2.7827v-4.8262h2.7827v-.7978a9.7038,9.7038,0,0,1,2.6436-7.0547,8.5265,8.5265,0,0,1,5.8256-2.1035,12.6131,12.6131,0,0,1,3.4668.4472l-.2636,5.0176a7.0487,7.0487,0,0,0-2.1143-.3c-2.15,0-3.0561,1.6885-3.0561,3.7237v1.0673H161.08v4.8262h-4.1607v16.2207Zm18.5191-8.4189c.1948,2.7148,2.8784,4.0049,5.9316,4.0049a17.5081,17.5081,0,0,0,5.791-.8926l.8828,4.4277a20.4117,20.4117,0,0,1-7.625,1.33c-7.1294,0-11.2231-4.1514-11.2231-10.71,0-5.3476,3.3345-11.2607,10.6079-11.2607,6.8208,0,9.3974,5.3017,9.3974,10.5088a12.5408,12.5408,0,0,1-.2343,2.5918Zm7.6811-4.4825c.0117-1.5761-.6924-4.2666-3.6694-4.2666-2.7647,0-3.8843,2.5254-4.0655,4.2666Zm25.773,12.3741a15.4365,15.4365,0,0,1-5.8614.9785c-6.8008,0-11.1318-4.1621-11.1318-10.7715,0-6.1533,4.209-11.1826,12.0327-11.1826a15.0793,15.0793,0,0,1,4.9937.83l-1.0191,4.86a8.8259,8.8259,0,0,0-3.6621-.67c-3.459,0-5.6782,2.4551-5.6528,5.8984a5.5,5.5,0,0,0,5.76,5.9151,9.7346,9.7346,0,0,0,3.77-.6846Zm8.17-7.8916c.1948,2.7148,2.8784,4.0049,5.9316,4.0049a17.5081,17.5081,0,0,0,5.791-.8926l.8828,4.4277a20.4117,20.4117,0,0,1-7.625,1.33c-7.1293,0-11.2231-4.1514-11.2231-10.71,0-5.3476,3.3345-11.2607,10.6079-11.2607,6.8208,0,9.3975,5.3017,9.3975,10.5088a12.5392,12.5392,0,0,1-.2344,2.5918Zm7.6811-4.4825c.0117-1.5761-.6924-4.2666-3.6694-4.2666-2.7647,0-3.8843,2.5254-4.0654,4.2666Zm38.4883,6.1553c0,2.7373.0811,4.9961.1719,6.7461h-5.6753l-.3008-2.9707h-.1367a7.46,7.46,0,0,1-6.5586,3.4434c-4.2764,0-7.3926-2.6739-7.3926-9.1446v-12.375h6.5523v11.3116c0,3.0791.9882,4.9228,3.2954,4.9228a3.4861,3.4861,0,0,0,3.2529-2.3017,3.5882,3.5882,0,0,0,.2388-1.39v-12.543h6.5527Zm5.2471-7.5771c0-2.6211-.0816-4.8369-.1724-6.7237h5.6753l.3032,2.917h.1368a7.62,7.62,0,0,1,6.5039-3.39c4.2983,0,7.5327,2.8672,7.5327,9.0615v12.458H275.353v-11.665c0-2.711-.9682-4.5674-3.3281-4.5674a3.5351,3.5351,0,0,0-3.3184,2.4707,4.691,4.691,0,0,0-.2285,1.6182v12.1435h-6.5522Zm37.1733,14.3232-.3857-2.0918h-.1392a7.5507,7.5507,0,0,1-6.0112,2.5645,6.4228,6.4228,0,0,1-6.8027-6.4385c0-5.4824,4.9047-8.082,12.351-8.0723v-.2685c0-1.1182-.6015-2.7168-3.854-2.71a12.097,12.097,0,0,0-5.8,1.5713l-1.2046-4.1885a17.0271,17.0271,0,0,1,8.18-1.8857c7.0064,0,9.2227,4.1416,9.2227,9.083v7.34a30.4978,30.4978,0,0,0,.3349,5.0967Zm-.7929-9.9531c-3.4424-.0186-6.1041.8115-6.1041,3.3174a2.359,2.359,0,0,0,2.5977,2.52,3.5758,3.5758,0,0,0,3.3848-2.418,4.1251,4.1251,0,0,0,.1216-1.1172Zm20.205-4.02c0-2.7666-.0815-5.1-.1718-7.0733h5.6865l.3027,2.9473h.0864a8.1305,8.1305,0,0,1,7.0088-3.42c4.6045,0,8.7437,4.0049,8.7437,10.72,0,7.6738-4.8882,11.2725-9.5713,11.2725a6.49,6.49,0,0,1-5.4551-2.4h-.0859v10.4414h-6.544Zm6.544,4.9648a6.3136,6.3136,0,0,0,.1318,1.3653,3.9671,3.9671,0,0,0,3.8247,3.1035c2.8247,0,4.5142-2.3819,4.5142-5.9532,0-3.3466-1.4976-5.9033-4.41-5.9033a4.0994,4.0994,0,0,0-3.9121,3.3086,4.6662,4.6662,0,0,0-.1484,1.17Zm31.1474,9.0088-.3857-2.0918h-.1392a7.5507,7.5507,0,0,1-6.0112,2.5645,6.4228,6.4228,0,0,1-6.8027-6.4385c0-5.4824,4.9048-8.082,12.351-8.0723v-.2685c0-1.1182-.6015-2.7168-3.854-2.71a12.097,12.097,0,0,0-5.8,1.5713l-1.2045-4.1885a17.0263,17.0263,0,0,1,8.18-1.8857c7.0064,0,9.2227,4.1416,9.2227,9.083v7.34a30.4855,30.4855,0,0,0,.335,5.0967Zm-.7929-9.9531c-3.4424-.0186-6.104.8115-6.104,3.3174a2.359,2.359,0,0,0,2.5976,2.52,3.5758,3.5758,0,0,0,3.3848-2.418,4.1251,4.1251,0,0,0,.1216-1.1172Zm11.521-20.5762h6.5527v30.5293h-6.5527Zm11.8252,0h6.5522v30.5293h-6.5522Zm23.8,30.5293-.3858-2.0918h-.1391a7.551,7.551,0,0,1-6.0113,2.5645,6.4229,6.4229,0,0,1-6.8027-6.4385c0-5.4824,4.9048-8.082,12.3511-8.0723v-.2685c0-1.1182-.6016-2.7168-3.854-2.71a12.0963,12.0963,0,0,0-5.8,1.5713L390.71,156.374a17.0266,17.0266,0,0,1,8.18-1.8857c7.0064,0,9.2227,4.1416,9.2227,9.083v7.34a30.4855,30.4855,0,0,0,.335,5.0967Zm-.793-9.9531c-3.4424-.0186-6.104.8115-6.104,3.3174a2.359,2.359,0,0,0,2.5976,2.52,3.5758,3.5758,0,0,0,3.3848-2.418,4.1251,4.1251,0,0,0,.1216-1.1172Zm40.5874-20.5762v24.2432c0,2.3887.081,4.8769.1719,6.2861h-5.8164l-.2754-3.082H436.34a7.337,7.337,0,0,1-6.5869,3.5547c-4.9668,0-8.9834-4.2647-8.9834-10.8067-.0322-7.0664,4.4063-11.1855,9.417-11.1855,2.6006,0,4.5928.9248,5.5342,2.3789h.0859V145.4785Zm-6.544,18.416a6.606,6.606,0,0,0-.0859-1.1865,3.883,3.883,0,0,0-3.793-3.1982c-2.999,0-4.5166,2.6582-4.5166,5.9746,0,3.542,1.7452,5.7793,4.4707,5.7793a3.8617,3.8617,0,0,0,3.7862-3.1348,6.432,6.432,0,0,0,.1386-1.48Zm18.5284-14.7754a3.2442,3.2442,0,0,1-3.5166,3.2676,3.2787,3.2787,0,1,1,3.5166-3.2676Zm-6.7373,26.8887V154.9609H454.15v21.0469Zm20.4648-13.9736c0-2.7666-.0811-5.1-.1719-7.0733h5.6865l.3038,2.9473h.0859a8.1312,8.1312,0,0,1,7.0088-3.42c4.6045,0,8.7441,4.0049,8.7441,10.72,0,7.6738-4.8886,11.2725-9.5713,11.2725a6.4868,6.4868,0,0,1-5.455-2.4h-.086v10.4414h-6.5449Zm6.5449,4.9648a6.3134,6.3134,0,0,0,.1319,1.3653,3.9656,3.9656,0,0,0,3.8242,3.1035c2.8242,0,4.5136-2.3819,4.5136-5.9532,0-3.3466-1.497-5.9033-4.4091-5.9033a4.1,4.1,0,0,0-3.9131,3.3086,4.6889,4.6889,0,0,0-.1475,1.17Zm24.3418.59c.1953,2.7148,2.8779,4.0049,5.9317,4.0049a17.5064,17.5064,0,0,0,5.791-.8926l.8828,4.4277a20.4135,20.4135,0,0,1-7.625,1.33c-7.1289,0-11.2236-4.1514-11.2236-10.71,0-5.3476,3.3349-11.2607,10.6084-11.2607,6.8212,0,9.3974,5.3017,9.3974,10.5088a12.5677,12.5677,0,0,1-.2344,2.5918Zm7.6817-4.4825c.0107-1.5761-.6924-4.2666-3.67-4.2666-2.7646,0-3.8838,2.5254-4.0654,4.2666Zm9.98-17.6279h6.5528v30.5293h-6.5528Zm11.8252,0h6.5518v30.5293h-6.5518Zm16.8662,22.11c.1953,2.7148,2.878,4.0049,5.9317,4.0049a17.5064,17.5064,0,0,0,5.791-.8926l.8828,4.4277a20.4135,20.4135,0,0,1-7.625,1.33c-7.1289,0-11.2236-4.1514-11.2236-10.71,0-5.3476,3.3349-11.2607,10.6084-11.2607,6.8213,0,9.3974,5.3017,9.3974,10.5088a12.5765,12.5765,0,0,1-.2343,2.5918Zm7.6817-4.4825c.0107-1.5761-.6924-4.2666-3.67-4.2666-2.7647,0-3.8838,2.5254-4.0655,4.2666Zm39.0469-17.6279v24.2432c0,2.3887.081,4.8769.1718,6.2861h-5.8164l-.2754-3.082h-.0908a7.3387,7.3387,0,0,1-6.5879,3.5547c-4.9658,0-8.9834-4.2647-8.9834-10.8067-.0322-7.0664,4.4072-11.1855,9.418-11.1855,2.6,0,4.5918.9248,5.5342,2.3789h.0859V145.4785Zm-6.544,18.416a6.6152,6.6152,0,0,0-.0859-1.1865,3.8846,3.8846,0,0,0-3.793-3.1982c-2.999,0-4.5166,2.6582-4.5166,5.9746,0,3.542,1.7451,5.7793,4.4707,5.7793a3.8615,3.8615,0,0,0,3.7861-3.1348,6.4821,6.4821,0,0,0,.1387-1.48Zm18.5283-14.7754a3.2445,3.2445,0,0,1-3.5176,3.2676,3.2788,3.2788,0,1,1,3.5176-3.2676Zm-6.7373,26.8887V154.9609H603.83v21.0469Zm20.4649-13.9736c0-2.7666-.0811-5.1-.1719-7.0733h5.6865l.3037,2.9473h.086a8.1309,8.1309,0,0,1,7.0088-3.42c4.6044,0,8.7441,4.0049,8.7441,10.72,0,7.6738-4.8887,11.2725-9.5713,11.2725a6.4869,6.4869,0,0,1-5.4551-2.4h-.0869v10.4414h-6.5439Zm6.5439,4.9648a6.2556,6.2556,0,0,0,.1328,1.3653,3.9657,3.9657,0,0,0,3.8242,3.1035c2.8243,0,4.5137-2.3819,4.5137-5.9532,0-3.3466-1.4971-5.9033-4.41-5.9033a4.1,4.1,0,0,0-3.9122,3.3086,4.694,4.694,0,0,0-.1484,1.17Zm40.0586-1.7246c0,7.69-5.4482,11.2061-11.0918,11.2061-6.1221,0-10.8672-4.0469-10.8672-10.8428,0-6.792,4.4805-11.1494,11.2451-11.1494C660.0664,154.4883,664.3457,158.9189,664.3457,165.2744Zm-15.2148.2149c0,3.5918,1.5175,6.3173,4.3056,6.3173,2.5508,0,4.1651-2.5537,4.1651-6.3505,0-3.1036-1.1953-6.294-4.1592-6.294C650.3213,159.1621,649.1309,162.37,649.1309,165.4893Zm19.2675-20.0108h6.5528v30.5293h-6.5528Zm11.8252,0h6.5518v30.5293h-6.5518Zm32.5821,19.7959c0,7.69-5.4483,11.2061-11.0918,11.2061-6.1221,0-10.8672-4.0469-10.8672-10.8428,0-6.792,4.48-11.1494,11.2451-11.1494C708.5264,154.4883,712.8057,158.9189,712.8057,165.2744Zm-15.2149.2149c0,3.5918,1.5176,6.3173,4.3057,6.3173,2.5508,0,4.165-2.5537,4.165-6.3505,0-3.1036-1.1953-6.294-4.1592-6.294C698.7813,159.1621,697.5908,162.37,697.5908,165.4893Zm17.3321,7.0263a3.8593,3.8593,0,1,1,3.8505,3.9649A3.7707,3.7707,0,0,1,714.9229,172.5156Zm-559.482,37.0117h-7.8218v-5.5009h22.3057v5.5009h-7.9316v23.4805h-6.5523Zm35.2334,16.7344c0,2.7373.0811,4.9961.1719,6.7461h-5.6753l-.3008-2.9707h-.1367a7.46,7.46,0,0,1-6.5586,3.4434c-4.2764,0-7.3926-2.6739-7.3926-9.1446v-12.375h6.5523v11.3116c0,3.0791.9883,4.9228,3.2954,4.9228a3.4861,3.4861,0,0,0,3.2529-2.3017,3.5882,3.5882,0,0,0,.2388-1.39v-12.543h6.5527Zm12.544-20.3027v6.0019h4.71v4.8262h-4.71v7.626c0,2.5381.63,3.708,2.582,3.708a8.6208,8.6208,0,0,0,1.9453-.1953l.0523,4.9717a13.8264,13.8264,0,0,1-4.2393.5615,6.8358,6.8358,0,0,1-4.9316-1.8262c-1.2149-1.2471-1.8086-3.249-1.8086-6.2373v-8.6084H194.022v-4.8262h2.7964V207.44Zm15.78,0v6.0019h4.71v4.8262h-4.71v7.626c0,2.5381.63,3.708,2.5821,3.708a8.6208,8.6208,0,0,0,1.9453-.1953l.0522,4.9717a13.8252,13.8252,0,0,1-4.2392.5615,6.836,6.836,0,0,1-4.9317-1.8262c-1.2148-1.2471-1.8086-3.249-1.8086-6.2373v-8.6084h-2.7964v-4.8262h2.7964V207.44Zm15.2212.16a3.2446,3.2446,0,0,1-3.5171,3.2676,3.2788,3.2788,0,1,1,3.5171-3.2676Zm-6.7373,26.8887V211.9609h6.5523v21.0469Zm27.2046-26.8887a3.2446,3.2446,0,0,1-3.5171,3.2676,3.2788,3.2788,0,1,1,3.5171-3.2676Zm-6.7378,26.8887V211.9609h6.5528v21.0469Zm20.4654-13.9736c0-2.7666-.0816-5.1-.1719-7.0733h5.6865l.3027,2.9473h.0865a8.13,8.13,0,0,1,7.0087-3.42c4.6045,0,8.7437,4.0049,8.7437,10.72,0,7.6738-4.8882,11.2725-9.5713,11.2725a6.49,6.49,0,0,1-5.4551-2.4h-.0859v10.4414h-6.5439Zm6.5439,4.9648a6.32,6.32,0,0,0,.1318,1.3653,3.9671,3.9671,0,0,0,3.8247,3.1035c2.8247,0,4.5142-2.3819,4.5142-5.9532,0-3.3466-1.4976-5.9033-4.41-5.9033a4.1,4.1,0,0,0-3.9121,3.3086,4.6708,4.6708,0,0,0-.1484,1.17Zm24.3423.59c.1948,2.7148,2.8784,4.0049,5.9316,4.0049a17.5081,17.5081,0,0,0,5.791-.8926l.8829,4.4277a20.4124,20.4124,0,0,1-7.625,1.33c-7.1294,0-11.2232-4.1514-11.2232-10.71,0-5.3476,3.3345-11.2607,10.6079-11.2607,6.8208,0,9.3975,5.3017,9.3975,10.5088a12.5392,12.5392,0,0,1-.2344,2.5918Zm7.6811-4.4825c.0113-1.5761-.6923-4.2666-3.6694-4.2666-2.7646,0-3.8843,2.5254-4.0654,4.2666Zm9.9536,7.2a12.7289,12.7289,0,0,0,5.61,1.5655c1.9751,0,2.8193-.666,2.8193-1.7393,0-1.09-.67-1.6182-3.0883-2.4336-4.3755-1.4385-6.0235-3.8193-5.9981-6.29,0-3.9531,3.3355-6.9209,8.5571-6.9209a13.9356,13.9356,0,0,1,5.9278,1.2265l-1.1392,4.5059a10.733,10.733,0,0,0-4.56-1.1875c-1.5972,0-2.5113.6367-2.5113,1.6953,0,1.0078.8345,1.54,3.4136,2.43,3.9936,1.3564,5.6665,3.41,5.6919,6.48,0,3.9268-3.063,6.8213-9.0938,6.8213a15.03,15.03,0,0,1-6.8139-1.4805Zm34.4815,5.1739a15.4359,15.4359,0,0,1-5.8613.9785c-6.8008,0-11.1319-4.1621-11.1319-10.7715,0-6.1533,4.209-11.1826,12.0327-11.1826a15.0788,15.0788,0,0,1,4.9937.83l-1.019,4.86a8.8264,8.8264,0,0,0-3.6622-.67c-3.4589,0-5.6782,2.4551-5.6528,5.8984a5.5,5.5,0,0,0,5.76,5.9151,9.7341,9.7341,0,0,0,3.7695-.6846Zm10.3374-26.3614a3.2446,3.2446,0,0,1-3.5171,3.2676,3.2788,3.2788,0,1,1,3.5171-3.2676Zm-6.7378,26.8887V211.9609h6.5527v21.0469Zm25.3477-21.0469,2.83,9.7881c.5117,1.7744.877,3.4336,1.2046,5.1182h.1392c.3242-1.7373.6841-3.3106,1.164-5.1182l2.7-9.7881h6.88l-7.8359,21.0469h-6.5279l-7.6518-21.0469Zm22.3071,12.628c.1948,2.7148,2.8784,4.0049,5.9316,4.0049a17.5132,17.5132,0,0,0,5.7915-.8926l.8828,4.4277a20.416,20.416,0,0,1-7.6254,1.33c-7.1294,0-11.2232-4.1514-11.2232-10.71,0-5.3476,3.3345-11.2607,10.6079-11.2607,6.8208,0,9.398,5.3017,9.398,10.5088a12.5748,12.5748,0,0,1-.2344,2.5918Zm7.6811-4.4825c.0118-1.5761-.6923-4.2666-3.6694-4.2666-2.7646,0-3.8843,2.5254-4.0654,4.2666Zm9.9805-1.4218c0-2.6211-.081-4.8369-.1719-6.7237h5.6758l.3027,2.917h.1368a7.6207,7.6207,0,0,1,6.5039-3.39c4.2988,0,7.5332,2.8672,7.5332,9.0615v12.458h-6.5528v-11.665c0-2.711-.9677-4.5674-3.3281-4.5674a3.5354,3.5354,0,0,0-3.3183,2.4707,4.7,4.7,0,0,0-.2286,1.6182v12.1435H420.333Zm25.1983,0c0-2.6211-.0821-4.8369-.1719-6.7237h5.6748l.3027,2.917h.1377a7.6187,7.6187,0,0,1,6.5029-3.39c4.2989,0,7.5332,2.8672,7.5332,9.0615v12.458H458.958v-11.665c0-2.711-.9678-4.5674-3.3281-4.5674a3.5342,3.5342,0,0,0-3.3174,2.4707,4.6766,4.6766,0,0,0-.2285,1.6182v12.1435h-6.5527Zm30.24,5.9043c.1953,2.7148,2.8779,4.0049,5.9316,4.0049a17.506,17.506,0,0,0,5.791-.8926l.8829,4.4277a20.4142,20.4142,0,0,1-7.625,1.33c-7.129,0-11.2237-4.1514-11.2237-10.71,0-5.3476,3.335-11.2607,10.6084-11.2607,6.8213,0,9.3975,5.3017,9.3975,10.5088a12.5748,12.5748,0,0,1-.2344,2.5918Zm7.6816-4.4825c.0108-1.5761-.6924-4.2666-3.67-4.2666-2.7646,0-3.8838,2.5254-4.0654,4.2666Zm9.9776-1.207c0-3.09-.0557-5.125-.1719-6.9385h5.6221l.2392,3.8965h.16a6.1637,6.1637,0,0,1,5.6806-4.3691,5.6562,5.6562,0,0,1,1.3985.1221v6.1533a8.0551,8.0551,0,0,0-1.77-.1836,4.2118,4.2118,0,0,0-4.4853,3.3222,7.8018,7.8018,0,0,0-.1211,1.4571v10.6484h-6.5527Zm36.7558,3.375c0,7.69-5.4482,11.2061-11.0918,11.2061-6.122,0-10.8672-4.0469-10.8672-10.8428,0-6.792,4.48-11.1494,11.2452-11.1494C525.9072,211.4883,530.1865,215.9189,530.1865,222.2744Zm-15.2148.2149c0,3.5918,1.5176,6.3173,4.3056,6.3173,2.5508,0,4.1651-2.5537,4.1651-6.3505,0-3.1036-1.1953-6.294-4.1592-6.294C516.1621,216.1621,514.9717,219.37,514.9717,222.4893Zm39.93,10.5185-.3858-2.0918h-.14a7.5485,7.5485,0,0,1-6.0108,2.5645,6.4229,6.4229,0,0,1-6.8027-6.4385c0-5.4824,4.9043-8.082,12.3506-8.0723v-.2685c0-1.1182-.6006-2.7168-3.8535-2.71a12.099,12.099,0,0,0-5.8008,1.5713l-1.2041-4.1885a17.0261,17.0261,0,0,1,8.18-1.8857c7.0068,0,9.2226,4.1416,9.2226,9.083v7.34a30.55,30.55,0,0,0,.335,5.0967Zm-.793-9.9531c-3.4424-.0186-6.1035.8115-6.1035,3.3174a2.3585,2.3585,0,0,0,2.5967,2.52,3.5748,3.5748,0,0,0,3.3847-2.418,4.1251,4.1251,0,0,0,.1221-1.1172ZM594.41,211.9609c-.0987,1.3594-.1807,3.1377-.1807,6.2735v11.7129c0,4.042-.8145,7.3525-3.2,9.4629-2.3047,1.999-5.4346,2.5849-8.53,2.5849a16.67,16.67,0,0,1-7.5664-1.6133l1.3-4.9589a13.0029,13.0029,0,0,0,6.0957,1.5751c3.0938,0,5.459-1.6533,5.459-5.54v-1.3535h-.0859a6.7694,6.7694,0,0,1-5.68,2.7168c-5.19,0-8.8985-4.2207-8.8985-10.2451,0-6.7891,4.3721-11.0879,9.5362-11.0879a6.3138,6.3138,0,0,1,5.7637,2.9892h.0859l.22-2.5166Zm-6.7247,8.5782a5.0373,5.0373,0,0,0-.1308-1.209,3.5524,3.5524,0,0,0-3.5186-2.8965c-2.38,0-4.2793,2.1748-4.2793,5.9912,0,3.1348,1.55,5.5869,4.2686,5.5869a3.58,3.58,0,0,0,3.4726-2.6416,6.8868,6.8868,0,0,0,.1875-1.7334Zm23.76,12.4687-.3857-2.0918h-.14a7.5483,7.5483,0,0,1-6.0107,2.5645,6.4229,6.4229,0,0,1-6.8028-6.4385c0-5.4824,4.9043-8.082,12.3506-8.0723v-.2685c0-1.1182-.6006-2.7168-3.8535-2.71a12.099,12.099,0,0,0-5.8008,1.5713l-1.2041-4.1885a17.0264,17.0264,0,0,1,8.18-1.8857c7.0069,0,9.2227,4.1416,9.2227,9.083v7.34a30.5517,30.5517,0,0,0,.3349,5.0967Zm-.793-9.9531c-3.4423-.0186-6.1035.8115-6.1035,3.3174a2.3585,2.3585,0,0,0,2.5967,2.52,3.5748,3.5748,0,0,0,3.3848-2.418,4.1251,4.1251,0,0,0,.122-1.1172Zm11.5215-20.5762h6.5528v30.5293h-6.5528Zm11.8252,0h6.5518v30.5293H633.999Zm23.8,30.5293-.3857-2.0918h-.14a7.5483,7.5483,0,0,1-6.0107,2.5645,6.4228,6.4228,0,0,1-6.8027-6.4385c0-5.4824,4.9043-8.082,12.3505-8.0723v-.2685c0-1.1182-.6005-2.7168-3.8535-2.71a12.0983,12.0983,0,0,0-5.8007,1.5713l-1.2042-4.1885a17.0264,17.0264,0,0,1,8.18-1.8857c7.0069,0,9.2227,4.1416,9.2227,9.083v7.34a30.5393,30.5393,0,0,0,.335,5.0967Zm-.7929-9.9531c-3.4424-.0186-6.1036.8115-6.1036,3.3174a2.3585,2.3585,0,0,0,2.5967,2.52,3.5748,3.5748,0,0,0,3.3848-2.418,4.1251,4.1251,0,0,0,.1221-1.1172Zm11.0468,6.4609a3.8594,3.8594,0,1,1,3.8506,3.9649A3.7707,3.7707,0,0,1,668.0527,229.5156Zm11.18,0a3.8593,3.8593,0,1,1,3.8506,3.9649A3.7707,3.7707,0,0,1,679.2324,229.5156Zm11.18,0a3.8593,3.8593,0,1,1,3.8506,3.9649A3.7707,3.7707,0,0,1,690.4121,229.5156Z" transform="translate(0 0)"/><path id="Unione_2" data-name="Unione 2" class="cls-4" d="M110.3333,223.8852V106.1162a13.5,13.5,0,1,1,5.142.248v117.273a13.5,13.5,0,1,1-5.142.248Z" transform="translate(0 0)"/></g></svg>