<svg id="Livello_1" data-name="Livello 1" xmlns="http://www.w3.org/2000/svg" xmlns:xlink="http://www.w3.org/1999/xlink" viewBox="0 0 824 330"><defs><style>.cls-1{fill:url(#Sfumatura_senza_nome_8);}.cls-2{fill:none;stroke:#1d1d1d;stroke-miterlimit:10;}.cls-3{fill:#fffcf5;}.cls-4{fill:url(#Sfumatura_senza_nome_4);}.cls-5{isolation:isolate;}</style><linearGradient id="Sfumatura_senza_nome_8" y1="165" x2="824" y2="165" gradientUnits="userSpaceOnUse"><stop offset="0" stop-color="#ffda00"/><stop offset="1" stop-color="#ffc200"/></linearGradient><linearGradient id="Sfumatura_senza_nome_4" x1="142.8784" y1="165" x2="729" y2="165" gradientUnits="userSpaceOnUse"><stop offset="0" stop-color="#454545"/><stop offset="1" stop-color="#1d1d1d"/></linearGradient></defs><rect class="cls-1" width="824" height="330" rx="75"/><rect class="cls-2" x="0.5" y="0.5" width="823" height="329" rx="74.5"/><circle id="Ellisse_7" data-name="Ellisse 7" class="cls-3" cx="199" cy="165" r="104"/><g id="Raggruppa_32" data-name="Raggruppa 32"><path id="Unione_1" data-name="Unione 1" class="cls-3" d="M476.361,168.4488H349.638a14.5,14.5,0,1,1,.267-5.523H476.094a14.5,14.5,0,1,1,.267,5.523Z" transform="translate(0 0)"/></g><path class="cls-4" d="M625,61A104,104,0,1,1,521,165,104,104,0,0,1,625,61ZM252.7344,220.6655H225.4063L217.4873,195.9H177.8926l-7.8413,24.7656H142.8784l40.5264-111.331H213.14Zm-40.9922-44.02-11.9561-37.4219a48.6309,48.6309,0,0,1-1.8632-10.0146h-.6211a42.5288,42.5288,0,0,1-1.941,9.7041L183.25,176.646Z" transform="translate(0 0)"/><g id="B"><g class="cls-5"><path class="cls-3" d="M586.7637,220.6655V109.3345H627.29q18.6329,0,28.6475,6.832T665.9531,135.42a22.7919,22.7919,0,0,1-6.0947,15.7608,32.0224,32.0224,0,0,1-15.5664,9.3935v.3106q11.8784,1.4751,18.9824,8.7724a24.5354,24.5354,0,0,1,7.1035,17.7793q0,15.2959-10.9463,24.2617t-29.8906,8.9668ZM611.84,127.812v26.3965h11.0245q7.7622,0,12.2285-3.7656,4.4634-3.7647,4.4638-10.3643,0-12.2665-18.3222-12.2666Zm0,45.0293V202.188h13.587q8.6939,0,13.625-4.0371a13.4865,13.4865,0,0,0,4.93-11.0244A12.586,12.586,0,0,0,639.13,176.646q-4.8531-3.8041-13.5479-3.8047Z" transform="translate(0 0)"/></g></g></svg>