<svg id="Livello_1" data-name="Livello 1" xmlns="http://www.w3.org/2000/svg" xmlns:xlink="http://www.w3.org/1999/xlink" viewBox="0 0 824 330"><defs><style>.cls-1{fill:url(#Sfumatura_senza_nome_8);}.cls-2{fill:none;stroke:#1d1d1d;stroke-miterlimit:10;}.cls-3{fill:url(#Sfumatura_senza_nome_9);}.cls-4{fill:#fffcf5;}</style><linearGradient id="Sfumatura_senza_nome_8" y1="165" x2="824" y2="165" gradientUnits="userSpaceOnUse"><stop offset="0" stop-color="#ffda00"/><stop offset="1" stop-color="#ffc200"/></linearGradient><linearGradient id="Sfumatura_senza_nome_9" x1="117.0718" y1="165" x2="706.9282" y2="165" gradientUnits="userSpaceOnUse"><stop offset="0" stop-color="#454545"/><stop offset="1" stop-color="#1d1d1d"/></linearGradient></defs><rect class="cls-1" width="824" height="330" rx="75"/><rect class="cls-2" x="0.5" y="0.5" width="823" height="329" rx="74.5"/><path id="AB_C" data-name="AB C" class="cls-3" d="M251.8008,233.2212H218.2852l-9.712-30.3731h-48.56l-9.6167,30.3731H117.0718L166.7739,96.6831h36.4673Zm-50.2735-53.9863L186.8643,133.34a59.6707,59.6707,0,0,1-2.2852-12.2822h-.7617a52.1426,52.1426,0,0,1-2.38,11.9014l-14.8535,46.2754Zm67.3169,53.9863V96.6831h49.7022q22.8516,0,35.1343,8.3789t12.2827,23.6133a27.9512,27.9512,0,0,1-7.4746,19.3291,39.2741,39.2741,0,0,1-19.09,11.52v.3809q14.568,1.81,23.28,10.7588a30.09,30.09,0,0,1,8.7124,21.8046q0,18.7588-13.4253,29.7549t-36.6577,10.9971Zm30.7544-113.877v32.3731h13.5205q9.52,0,14.9966-4.6182,5.4733-4.6172,5.4746-12.7109,0-15.0425-22.4707-15.044Zm0,55.2246V210.56h16.6626q10.6626,0,16.71-4.9512,6.0455-4.95,6.0464-13.52,0-8.187-5.9507-12.8535-5.9524-4.6641-16.6152-4.6661Zm407.33,53.7969q-14.95,7.2363-39.0381,7.2364-31.4208,0-49.417-18.4727-17.994-18.47-17.9951-49.2256,0-32.7525,20.2334-53.13,20.231-20.3745,52.5108-20.376,19.995,0,33.706,5.0459v29.6124q-13.7109-8.1871-31.23-8.1885-19.235,0-31.04,12.0918-11.8081,12.0938-11.8066,32.7539,0,19.8061,11.14,31.5644,11.1417,11.76,29.9932,11.7588a63.9668,63.9668,0,0,0,32.9443-8.76Z" transform="translate(0 0)"/><path id="Unione_1" data-name="Unione 1" class="cls-4" d="M544.073,168.2121H424.926a13.6389,13.6389,0,1,1-13.2685-16.714h0a13.61,13.61,0,0,1,13.519,11.572H543.822a13.4995,13.4995,0,1,1,.251,5.141Z" transform="translate(0 0)"/></svg>