<svg id="Livello_1" data-name="Livello 1" xmlns="http://www.w3.org/2000/svg" xmlns:xlink="http://www.w3.org/1999/xlink" viewBox="0 0 824 330"><defs><style>.cls-1{fill:url(#Sfumatura_senza_nome_8);}.cls-2{fill:none;stroke:#1d1d1d;stroke-miterlimit:10;}.cls-3{fill:url(#Sfumatura_senza_nome_5);}.cls-4{fill:#fffcf5;}</style><linearGradient id="Sfumatura_senza_nome_8" y1="165" x2="824" y2="165" gradientUnits="userSpaceOnUse"><stop offset="0" stop-color="#ffda00"/><stop offset="1" stop-color="#ffc200"/></linearGradient><linearGradient id="Sfumatura_senza_nome_5" x1="111.8179" y1="165" x2="712.1821" y2="165" gradientUnits="userSpaceOnUse"><stop offset="0" stop-color="#454545"/><stop offset="1" stop-color="#1d1d1d"/></linearGradient></defs><g id="Raggruppa_41" data-name="Raggruppa 41"><rect class="cls-1" width="824" height="330" rx="75"/><rect class="cls-2" x="0.5" y="0.5" width="823" height="329" rx="74.5"/><path class="cls-3" d="M121.1147,118.771,111.8179,89.79h7.1772l3.5064,12.27c1.0136,3.4463,1.893,6.7265,2.6167,10.3418h.0908c.7329-3.48,1.6694-6.9229,2.6553-10.2373l3.6792-12.374h6.97l-9.7451,28.9814Zm23.5113-8.4189c.1948,2.7148,2.8784,4.0048,5.9316,4.0048a17.5082,17.5082,0,0,0,5.791-.8925l.8828,4.4277a20.4117,20.4117,0,0,1-7.625,1.33c-7.1293,0-11.2231-4.1514-11.2231-10.71,0-5.3476,3.3345-11.2607,10.6079-11.2607,6.8208,0,9.3975,5.3017,9.3975,10.5088a12.5392,12.5392,0,0,1-.2344,2.5918Zm7.6811-4.4825c.0113-1.5761-.6924-4.2666-3.6694-4.2666-2.7647,0-3.8843,2.5254-4.0654,4.2666ZM182.668,88.2417v24.2432c0,2.3886.0815,4.8769.1723,6.2861h-5.8164l-.2754-3.082h-.0908a7.3386,7.3386,0,0,1-6.5874,3.5547c-4.9663,0-8.9834-4.2647-8.9834-10.8067-.0322-7.0664,4.4068-11.1855,9.417-11.1855,2.6006,0,4.5928.9248,5.5342,2.3789h.0859V88.2417Zm-6.544,18.416a6.6513,6.6513,0,0,0-.0854-1.1865,3.8839,3.8839,0,0,0-3.793-3.1983c-2.9995,0-4.5171,2.6583-4.5171,5.9747,0,3.542,1.7456,5.7793,4.4712,5.7793a3.8612,3.8612,0,0,0,3.7857-3.1348,6.4326,6.4326,0,0,0,.1386-1.48Zm32.5493,1.38c0,7.69-5.4477,11.2061-11.0913,11.2061-6.123,0-10.8672-4.0469-10.8672-10.8428,0-6.792,4.4805-11.1494,11.2442-11.1494C204.394,97.2515,208.6733,101.6821,208.6733,108.0376Zm-15.2153.2148c0,3.5918,1.5181,6.3174,4.3062,6.3174,2.5512,0,4.1655-2.5537,4.1655-6.3506,0-3.1035-1.1958-6.2939-4.16-6.2939C194.6494,101.9253,193.458,105.1333,193.458,108.2524Zm47.7759,3.7725c0,2.7373.081,4.9961.1719,6.7461h-5.6753L235.43,115.8h-.1367a7.46,7.46,0,0,1-6.5586,3.4434c-4.2764,0-7.3926-2.6739-7.3926-9.1446V97.7241h6.5522v11.3115c0,3.0791.9883,4.9229,3.2955,4.9229a3.486,3.486,0,0,0,3.2529-2.3018,3.5892,3.5892,0,0,0,.2388-1.39V97.7241h6.5527Zm5.2466-7.5771c0-2.6211-.0811-4.837-.1719-6.7237h5.6753l.3032,2.917h.1367a7.62,7.62,0,0,1,6.5039-3.39c4.2984,0,7.5327,2.8672,7.5327,9.0615v12.458h-6.5522V107.106c0-2.711-.9683-4.5674-3.3281-4.5674a3.5351,3.5351,0,0,0-3.3184,2.4707,4.688,4.688,0,0,0-.2285,1.6181V118.771h-6.5527ZM114.04,161.6626c0-3.09-.0562-5.125-.1719-6.9385h5.622l.2383,3.8965h.1607a6.1642,6.1642,0,0,1,5.6806-4.3691,5.6531,5.6531,0,0,1,1.398.122v6.1534a8.0407,8.0407,0,0,0-1.7691-.1836,4.2118,4.2118,0,0,0-4.4853,3.3222,7.801,7.801,0,0,0-.1211,1.4571V175.771H114.04Zm27.8452,14.1084-.3858-2.0918H141.36a7.551,7.551,0,0,1-6.0113,2.5645,6.4229,6.4229,0,0,1-6.8027-6.4385c0-5.4824,4.9048-8.0821,12.3511-8.0723v-.2685c0-1.1182-.6016-2.7168-3.854-2.71a12.0966,12.0966,0,0,0-5.8,1.5713l-1.2046-4.1885a17.0261,17.0261,0,0,1,8.18-1.8857c7.0068,0,9.2231,4.1416,9.2231,9.083v7.34a30.4962,30.4962,0,0,0,.335,5.0967Zm-.793-9.9531c-3.4424-.0186-6.104.8115-6.104,3.3174a2.359,2.359,0,0,0,2.5976,2.5195,3.5748,3.5748,0,0,0,3.3843-2.418,4.1058,4.1058,0,0,0,.1221-1.1172Zm31.6162-11.0938c-.0991,1.3594-.1807,3.1377-.1807,6.2735V172.71c0,4.042-.8144,7.3526-3.2,9.4629-2.3046,1.9991-5.4345,2.585-8.53,2.585a16.6669,16.6669,0,0,1-7.5659-1.6133l1.2988-4.959a13.001,13.001,0,0,0,6.0957,1.5752c3.0947,0,5.46-1.6533,5.46-5.54v-1.3535h-.0864a6.77,6.77,0,0,1-5.68,2.7168c-5.19,0-8.8979-4.2207-8.8979-10.2451,0-6.7891,4.3716-11.0879,9.5361-11.0879a6.3144,6.3144,0,0,1,5.7637,2.9892h.0859l.22-2.5166Zm-6.7246,8.5781a5.0369,5.0369,0,0,0-.1309-1.2089,3.5526,3.5526,0,0,0-3.518-2.8965c-2.3809,0-4.28,2.1748-4.28,5.9912,0,3.1348,1.55,5.5869,4.269,5.5869a3.58,3.58,0,0,0,3.4727-2.6416,6.8868,6.8868,0,0,0,.1875-1.7334Zm11.6982-1.8544c0-2.6211-.0815-4.837-.1723-6.7237h5.6753l.3032,2.917h.1367a7.62,7.62,0,0,1,6.5039-3.39c4.2984,0,7.5327,2.8672,7.5327,9.0615v12.458h-6.5522V164.106c0-2.711-.9683-4.5674-3.3281-4.5674a3.535,3.535,0,0,0-3.3184,2.4707,4.688,4.688,0,0,0-.2285,1.6181V175.771h-6.5523Zm45.9561,3.59c0,7.69-5.4478,11.2061-11.0913,11.2061-6.1231,0-10.8672-4.0469-10.8672-10.8428,0-6.792,4.48-11.1494,11.2441-11.1494C219.3584,154.2515,223.6377,158.6821,223.6377,165.0376Zm-15.2148.2148c0,3.5918,1.5175,6.3174,4.3056,6.3174,2.5513,0,4.1655-2.5537,4.1655-6.3506,0-3.1035-1.1958-6.2939-4.16-6.2939C209.6138,158.9253,208.4229,162.1333,208.4229,165.2524Zm27.9531-3.8046c0-2.6211-.0811-4.837-.1719-6.7237h5.6753l.3032,2.917h.1367a7.62,7.62,0,0,1,6.5039-3.39c4.2984,0,7.5328,2.8672,7.5328,9.0615v12.458h-6.5523V164.106c0-2.711-.9683-4.5674-3.3281-4.5674a3.5351,3.5351,0,0,0-3.3184,2.4707,4.688,4.688,0,0,0-.2285,1.6181V175.771H236.376Zm30.24,5.9043c.1948,2.7148,2.8784,4.0048,5.9317,4.0048a17.509,17.509,0,0,0,5.791-.8925l.8828,4.4277a20.412,20.412,0,0,1-7.625,1.33c-7.1294,0-11.2232-4.1514-11.2232-10.71,0-5.3476,3.3345-11.2607,10.6079-11.2607,6.8208,0,9.3975,5.3017,9.3975,10.5088a12.5321,12.5321,0,0,1-.2344,2.5918Zm7.6812-4.4825c.0112-1.5761-.6924-4.2666-3.6695-4.2666-2.7646,0-3.8842,2.5254-4.0654,4.2666Zm9.9809-17.6279h6.5523V175.771h-6.5523ZM114.0146,227.07a12.73,12.73,0,0,0,5.61,1.5655c1.9751,0,2.8193-.6661,2.8193-1.7393,0-1.09-.67-1.6182-3.0883-2.4336-4.3755-1.4385-6.0235-3.8193-5.9981-6.29,0-3.9532,3.3355-6.9209,8.5571-6.9209a13.9356,13.9356,0,0,1,5.9278,1.2265l-1.1392,4.5059a10.733,10.733,0,0,0-4.56-1.1875c-1.5972,0-2.5113.6367-2.5113,1.6953,0,1.0078.8345,1.54,3.4136,2.43,3.9937,1.3564,5.6665,3.41,5.6919,6.48,0,3.9267-3.063,6.8213-9.0938,6.8213a15.03,15.03,0,0,1-6.8139-1.48Zm38.5108-1.0449c0,2.7373.081,4.9961.1719,6.7461H147.022l-.3008-2.9707h-.1367a7.46,7.46,0,0,1-6.5586,3.4434c-4.2764,0-7.3926-2.6739-7.3926-9.1446v-12.375h6.5522v11.3115c0,3.0791.9883,4.9229,3.2955,4.9229a3.486,3.486,0,0,0,3.2529-2.3018,3.5892,3.5892,0,0,0,.2388-1.39v-12.543h6.5527Zm26.0049-3.9873c0,7.69-5.4478,11.2061-11.0913,11.2061-6.1231,0-10.8672-4.0469-10.8672-10.8428,0-6.792,4.48-11.1494,11.2441-11.1494C174.251,211.2515,178.53,215.6821,178.53,222.0376Zm-15.2149.2148c0,3.5918,1.5176,6.3174,4.3057,6.3174,2.5513,0,4.1655-2.5537,4.1655-6.3506,0-3.1035-1.1958-6.2939-4.16-6.2939C164.5063,215.9253,163.3154,219.1333,163.3154,222.2524Zm27.9512-3.59c0-3.09-.0562-5.125-.1719-6.9385h5.6221l.2383,3.8965h.1606a6.1643,6.1643,0,0,1,5.6807-4.3691,5.6522,5.6522,0,0,1,1.3979.122v6.1534a8.0376,8.0376,0,0,0-1.7685-.1836,4.2125,4.2125,0,0,0-4.4859,3.3222,7.801,7.801,0,0,0-.1211,1.4571V232.771h-6.5522Zm21.04,5.69c.1949,2.7148,2.8785,4.0048,5.9317,4.0048a17.5082,17.5082,0,0,0,5.791-.8925l.8828,4.4277a20.4117,20.4117,0,0,1-7.625,1.33c-7.1294,0-11.2231-4.1514-11.2231-10.71,0-5.3476,3.3344-11.2607,10.6079-11.2607,6.8208,0,9.3974,5.3017,9.3974,10.5088a12.5408,12.5408,0,0,1-.2343,2.5918Zm7.6812-4.4825c.0112-1.5761-.6924-4.2666-3.6694-4.2666-2.7647,0-3.8843,2.5254-4.0655,4.2666Zm30.0757-8.1455c-.0991,1.3594-.1807,3.1377-.1807,6.2735V229.71c0,4.042-.8144,7.3526-3.2,9.4629-2.3047,1.9991-5.4346,2.585-8.53,2.585a16.6672,16.6672,0,0,1-7.5659-1.6133l1.2989-4.959a13.001,13.001,0,0,0,6.0957,1.5752c3.0947,0,5.46-1.6533,5.46-5.54v-1.3535h-.0864a6.77,6.77,0,0,1-5.68,2.7168c-5.19,0-8.8979-4.2207-8.8979-10.2451,0-6.7891,4.3715-11.0879,9.5361-11.0879a6.3144,6.3144,0,0,1,5.7637,2.9892h.0859l.22-2.5166Zm-6.7246,8.5781a5.0369,5.0369,0,0,0-.1309-1.2089,3.5527,3.5527,0,0,0-3.5181-2.8965c-2.3808,0-4.28,2.1748-4.28,5.9912,0,3.1348,1.55,5.5869,4.269,5.5869a3.58,3.58,0,0,0,3.4727-2.6416,6.8914,6.8914,0,0,0,.1875-1.7334Zm11.6982-1.8544c0-2.6211-.0815-4.837-.1724-6.7237H260.54l.3033,2.917h.1367a7.62,7.62,0,0,1,6.5039-3.39c4.2983,0,7.5327,2.8672,7.5327,9.0615v12.458h-6.5522V221.106c0-2.711-.9683-4.5674-3.3282-4.5674a3.5349,3.5349,0,0,0-3.3183,2.4707,4.688,4.688,0,0,0-.2285,1.6181V232.771h-6.5523Zm45.9561,3.59c0,7.69-5.4478,11.2061-11.0913,11.2061-6.1231,0-10.8672-4.0469-10.8672-10.8428,0-6.792,4.48-11.1494,11.2441-11.1494C296.7139,211.2515,300.9932,215.6821,300.9932,222.0376Zm-15.2149.2148c0,3.5918,1.5176,6.3174,4.3057,6.3174,2.5513,0,4.1655-2.5537,4.1655-6.3506,0-3.1035-1.1958-6.2939-4.16-6.2939C286.9692,215.9253,285.7783,219.1333,285.7783,222.2524ZM563.4458,91.7461h-.4727a9.0184,9.0184,0,0,0-2.7949.4941,3.6491,3.6491,0,0,0-1.7627,2.1719l-9.9336,23.5635h-4.5576l-9.6318-22.8272a.2585.2585,0,0,1-.0645-.1289.8768.8768,0,0,0-.0644-.1718,6.1187,6.1187,0,0,0-1.419-2.3047,3.8621,3.8621,0,0,0-2.58-.7969h-.6456V88.8652h15.91v2.8809h-1.5479a3.4952,3.4952,0,0,0-1.1826.2793.9113.9113,0,0,0-.5371.9248,2.6963,2.6963,0,0,0,.043.4941c.0283.1582.0566.3086.0859.4512.0283.0859.0567.166.086.2373s.0566.15.0859.2363l5.332,13.502a5.4043,5.4043,0,0,1,.3008,1.14q.085.58.1719,1.1387a3.571,3.571,0,0,0,.043.5381,3.8627,3.8627,0,0,1,.0429.58q.0425-.3427.0645-.6875c.0146-.23.0361-.458.0644-.6885a6.4336,6.4336,0,0,1,.1719-1.0312,9.7218,9.7218,0,0,1,.3018-.9893l5.375-13.2012a.48.48,0,0,0,.0859-.15c.0283-.0713.0566-.1357.0859-.1933.086-.23.1641-.458.2364-.6885a2.2991,2.2991,0,0,0,.1074-.6875.9517.9517,0,0,0-.4082-.8389,1.8852,1.8852,0,0,0-.9248-.3222.7622.7622,0,0,0-.2363-.043h-2.3008V88.8652h12.47Zm20.0811,19.78,3.1826,1.0742a10.4328,10.4328,0,0,1-4.085,4.4082,11.53,11.53,0,0,1-5.8486,1.4834,12.14,12.14,0,0,1-8.041-2.6875q-3.2242-2.688-3.2246-7.7617a8.9792,8.9792,0,0,1,3.375-7.5039,12.5517,12.5517,0,0,1,7.9765-2.6446q4.7739,0,7.2676,2.8379a11.0944,11.0944,0,0,1,2.5371,7.4824H573.4653v.7266a11.521,11.521,0,0,0,.8594,4.2949q.8173,1.9453,3.7842,1.9444a5.1531,5.1531,0,0,0,3.2256-1.0537,8,8,0,0,0,2.1924-2.5577Zm-3.6983-6.1494a.1228.1228,0,0,1,.044-.086v-.56a6.28,6.28,0,0,0-.667-2.6875,3.0144,3.0144,0,0,0-4.8594.0108,8.6689,8.6689,0,0,0-.752,2.6836q-.0439.2139-.0644.3838a2.6521,2.6521,0,0,0-.0215.3408h6.32Zm35.9483,12.1689H615.39l-4.9453.1289q-.6034.0425-1.1826.0859t-1.1826.086q-.6021.0425-1.1826.1074t-1.1826.15c-.0577-.1719-.1143-.3369-.1719-.4941s-.1143-.337-.1719-.5372c-.0293-.1718-.0644-.3447-.1074-.5166s-.0791-.3437-.1074-.5156a7.0672,7.0672,0,0,1-2.8379,1.87,10.0588,10.0588,0,0,1-3.3975.5811,8.49,8.49,0,0,1-6.9014-2.9678,10.9693,10.9693,0,0,1-2.4726-7.2666,12.0819,12.0819,0,0,1,2.2578-7.2021,7.6859,7.6859,0,0,1,6.6865-3.1612,11.6918,11.6918,0,0,1,3.5479.5381,9.3338,9.3338,0,0,1,3.1172,1.6983V93.4658a4.1024,4.1024,0,0,0-.2364-1.4189,1.0682,1.0682,0,0,0-1.14-.6446h-1.8486v-2.666a37.7388,37.7388,0,0,0,5.2666-.28,41.6676,41.6676,0,0,0,5.1386-.9668v25.1543q0,1.5483.624,1.957a3.4447,3.4447,0,0,0,1.87.4082l.9463-.043Zm-10.6211-7.998v-3.2247a6.3028,6.3028,0,0,0-.9248-3.44,3.4908,3.4908,0,0,0-3.2032-1.4619,2.744,2.744,0,0,0-2.58,1.333,10.5062,10.5062,0,0,0-1.14,4.1924q-.0219.624-.0215,1.14,0,.56.0215,1.2256t.1074,1.3545a8.2034,8.2034,0,0,0,.9033,3.0528,2.7051,2.7051,0,0,0,2.6231,1.3759q2.58,0,3.3965-1.6982a8.6612,8.6612,0,0,0,.8174-3.8057Zm36.3349-1.376a9.04,9.04,0,0,1-3.5049,7.6543,13.0915,13.0915,0,0,1-8.1484,2.666,13.2478,13.2478,0,0,1-8.17-2.6445,8.9164,8.9164,0,0,1-3.5264-7.59,9.1214,9.1214,0,0,1,3.4834-7.6758,12.9929,12.9929,0,0,1,8.17-2.6875,13.1967,13.1967,0,0,1,8.2129,2.6446,9.05,9.05,0,0,1,3.4834,7.6757Zm-7.9336-1.3975q-.0219-.7089-.0644-1.44a8.44,8.44,0,0,0-.9248-3.1387,2.7729,2.7729,0,0,0-2.6875-1.4189,2.8866,2.8866,0,0,0-2.7735,1.4619,8.3519,8.3519,0,0,0-.9677,3.2246q-.0865.6885-.1075,1.3545t-.0214,1.2685q0,.6021.0214,1.3545t.1075,1.4834a8.784,8.784,0,0,0,.9462,3.2461,2.8692,2.8692,0,0,0,2.795,1.4844,2.7481,2.7481,0,0,0,2.709-1.4619,9.0812,9.0812,0,0,0,.9033-3.1826q.0424-.6445.0644-1.2471t.0215-1.1611v-.5586C633.5786,107.6709,633.5708,107.2471,633.5571,106.7744Zm43.9463,10.9q-2.4741.1288-4.9238.43a5.6008,5.6008,0,0,1-.1934-.7305c-.0429-.23-.0937-.458-.15-.6885q-.044-.3428-.0859-.7089a6.3075,6.3075,0,0,1-.043-.753,8.1944,8.1944,0,0,1-3.2685,2.5371,10.8081,10.8081,0,0,1-4.085.7315q-3.57,0-5.1816-1.7852A7.6168,7.6168,0,0,1,657.96,111.44v-7.6963a2.5119,2.5119,0,0,0-.5157-1.8282,2.7571,2.7571,0,0,0-1.8925-.4941v-2.666h9.5029v11.6426A6.3092,6.3092,0,0,0,665.7,113.07a2.3849,2.3849,0,0,0,2.3652,1.208,3.3885,3.3885,0,0,0,2.9668-1.333,5.36,5.36,0,0,0,.9454-3.1826v-6.1914q0-1.5483-.795-1.85a6.49,6.49,0,0,0-2.2148-.3008v-2.666h10.1484v13.8828q0,1.5528.6446,1.9619a3.5667,3.5667,0,0,0,1.8925.4092h.8164v2.5371Q679.9747,117.5459,677.5034,117.6748ZM695.24,101.0342a16.1706,16.1706,0,0,1,3.3545-2.2793,8.7306,8.7306,0,0,1,3.9561-.86,6.5953,6.5953,0,0,1,4.9668,1.7207,6.8545,6.8545,0,0,1,1.6553,4.9444v7.2246a6.7542,6.7542,0,0,0,.3222,2.5371q.3224.6885,2.1719.6875h.5156v2.5371H699.4106v-2.5371q1.6348.044,2.1075-.5391a3.3329,3.3329,0,0,0,.4726-2.05v-6.8164a5.2191,5.2191,0,0,0-.5156-2.3945,2.1759,2.1759,0,0,0-2.15-1.0137,3.7505,3.7505,0,0,0-3.2246,1.333,5.6946,5.6946,0,0,0-.9893,3.4824v4.7735a5.7771,5.7771,0,0,0,.3877,2.4512q.3867.7734,2.2354.7734v2.5371h-12.77v-2.5371q2.02.044,2.5156-.6035a4.5264,4.5264,0,0,0,.4941-2.5459v-8.626a1.3737,1.3737,0,0,0-.7314-1.3809,4.8769,4.8769,0,0,0-1.6338-.4316h-.8164v-2.666a.3351.3351,0,0,0,.15.043h.1074a.3364.3364,0,0,0,.15.0429h.1074q.816,0,1.6123-.0215t1.5694-.0644q1.5908-.0851,3.2041-.2363t3.16-.4082a12.9545,12.9545,0,0,1,.2578,1.4834q.0865.7528.1289,1.4833ZM514.47,155.0674a8.0931,8.0931,0,0,1,.4512,1.5049,11.6185,11.6185,0,0,1,.1933,1.5478,12.8151,12.8151,0,0,1,2.5372-2.2363,5.565,5.565,0,0,1,3.1816-.9893,3.2406,3.2406,0,0,1,2.4727,1.0323,3.5187,3.5187,0,0,1,.9677,2.4941,3.4279,3.4279,0,0,1-.86,2.3223,3.2181,3.2181,0,0,1-2.1934,1.1181h-.4726a4.1408,4.1408,0,0,1-1.0957-.2373,1.835,1.835,0,0,1-.8819-.666,1.0077,1.0077,0,0,1-.1513-.1934,1.01,1.01,0,0,0-.15-.1933c-.1426-.1729-.294-.3369-.4512-.4951a.7918.7918,0,0,0-.58-.2364,1.588,1.588,0,0,0-1.0967.4512,4.7277,4.7277,0,0,0-.8388,1.0108,3.1734,3.1734,0,0,0-.2149.3222c-.0576.1016-.1152.209-.1719.3233v7.4814q0,1.6773.6446,2a4.4486,4.4486,0,0,0,1.5918.4082h.0859a5.1024,5.1024,0,0,1,.666.043,4.5323,4.5323,0,0,1,.6231.1289v2.5371H504.7944v-2.5371a2.13,2.13,0,0,0,.43-.043,2.4552,2.4552,0,0,1,.4737-.0429.4661.4661,0,0,0,.15-.0215.4651.4651,0,0,1,.1514-.0225,4.3015,4.3015,0,0,0,1.332-.3662,1.1692,1.1692,0,0,0,.6016-1.1856V161.876q0-1.768-.5586-2.1983a3.7865,3.7865,0,0,0-1.8916-.5615,3.0461,3.0461,0,0,0-.3447-.0644,2.8822,2.8822,0,0,0-.3438-.0215v-2.6309a39.2619,39.2619,0,0,0,4.8809-.3867q2.4286-.3427,4.7949-.9023Zm34.1192,18.8555a7,7,0,0,1-4.4922,1.3544,7.283,7.283,0,0,1-3.0752-.624,7.5713,7.5713,0,0,1-2.4727-1.87.5617.5617,0,0,0-.2578.2578,10.3037,10.3037,0,0,1-2.7519,1.8272,8.1852,8.1852,0,0,1-3.3116.624,7.4829,7.4829,0,0,1-4.4072-1.3115,4.6209,4.6209,0,0,1-1.87-4.0635q0-3.6548,2.4512-4.9024a22.3659,22.3659,0,0,1,5.4179-1.8916c.1426-.0283.2793-.0576.4082-.0859s.2647-.0576.4082-.0859q.9024-.2154,1.8067-.4307.9022-.2139,1.6767-.4727v-2.3652a1.897,1.897,0,0,0-.71-1.6123,2.9425,2.9425,0,0,0-1.8272-.5381q-1.5923,0-1.999.6885a4.8782,4.8782,0,0,0-.5811,1.5049,4.7973,4.7973,0,0,1-.6025,1.5693q-.4292.7105-2.1924.71h-.4306a4.0385,4.0385,0,0,1-1.6758-.5381,1.73,1.73,0,0,1-.86-1.44,3.6562,3.6562,0,0,1,1.7627-3.3321,11.0183,11.0183,0,0,1,3.87-1.4834,12.2612,12.2612,0,0,1,1.8487-.2793q.9037-.0643,1.6347-.0644a13.2748,13.2748,0,0,1,6.4493,1.376q2.4932,1.3755,2.4941,5.8046v8.8575a1.3934,1.3934,0,0,0,.2578.86.86.86,0,0,0,.7315.3438.9781.9781,0,0,0,.9248-.4942,3.8626,3.8626,0,0,0,.4082-1.0966q.0424-.2578.0644-.5157c.0137-.1718.0215-.3291.0215-.4736l2.7519-.043A5.5449,5.5449,0,0,1,548.5894,173.9229Zm-10.6416-8.751a.4753.4753,0,0,1-.2159.0429c-.2285.086-.4726.1719-.73.2579a5.72,5.72,0,0,0-.7305.3007,10.2124,10.2124,0,0,0-2.2793,1.2041,2.4273,2.4273,0,0,0-1.0322,2.1075,2.5938,2.5938,0,0,0,.7314,1.8486,2.43,2.43,0,0,0,1.8487.7744,2.6018,2.6018,0,0,0,1.8916-.667,2.4221,2.4221,0,0,0,.6884-1.8271V165.043A.6749.6749,0,0,1,537.9478,165.1719Zm31.9912-8.2989a5.505,5.505,0,0,1,1.5273-1.3974,3.6891,3.6891,0,0,1,1.999-.5811,3.3937,3.3937,0,0,1,1.9561.6026,2.0641,2.0641,0,0,1,.9258,1.72,2.7565,2.7565,0,0,1-.4307,1.5264,1.84,1.84,0,0,1-1.5049.7529,2.0239,2.0239,0,0,1-1.29-.3008,2.9059,2.9059,0,0,1-.56-.6455.123.123,0,0,0-.043-.0859,1.2386,1.2386,0,0,1-.0644-.15.2742.2742,0,0,0-.0645-.1074.1214.1214,0,0,1-.0429-.086.7371.7371,0,0,0-.1075-.0859.6847.6847,0,0,1-.1074-.086.0842.0842,0,0,1-.0644-.0214.0872.0872,0,0,0-.0645-.0215l-.043-.043a.8708.8708,0,0,0-.4082.2148,1.6407,1.6407,0,0,0-.3222.3868.123.123,0,0,0-.043.0859,4.9554,4.9554,0,0,1,.7734,1.5264,5.7541,5.7541,0,0,1,.2579,1.6982,5.6546,5.6546,0,0,1-1.3116,3.7842,8.0473,8.0473,0,0,1-3.333,2.3223,9.1084,9.1084,0,0,1-2.2353.58q-1.1616.1524-2.3213.1944a3.07,3.07,0,0,1-.4951.0429h-.4951a4.2472,4.2472,0,0,0-.43.0215,4.22,4.22,0,0,1-.43.0215c-.1153,0-.252.0068-.4082.0215a4.3925,4.3925,0,0,0-.4512.0644,1.955,1.955,0,0,0-.7744.2364.626.626,0,0,0-.3447.58q0,.6459,1.0976.9248a19.5068,19.5068,0,0,0,2.7305.4511q.8584.0879,1.7832.1944t1.8711.2793a15.514,15.514,0,0,1,5.1172,1.6982,4.5562,4.5562,0,0,1,2.3222,4.3643,6.1132,6.1132,0,0,1-2.6445,5.4394,14.4219,14.4219,0,0,1-5.8262,2.3008q-.7323.0849-1.4843.15t-1.4405.0644q-.9037,0-2.0849-.0859a18.7371,18.7371,0,0,1-2.43-.3437,12.8921,12.8921,0,0,1-4.3438-1.6123,3.907,3.907,0,0,1-1.9775-3.5909,2.7436,2.7436,0,0,1,1.14-2.3437,4.9551,4.9551,0,0,1,2.5157-.9668h.7519a2.2391,2.2391,0,0,1,.4512.043,2.1676,2.1676,0,0,1,.7744.2148.5814.5814,0,0,1,.3447.5586,1.9627,1.9627,0,0,1-.0429.4082c-.0293.13-.0586.2646-.086.4092a.5624.5624,0,0,1-.0429.1933.5125.5125,0,0,0-.043.1934,3.1356,3.1356,0,0,0-.1943.623,3.1863,3.1863,0,0,0-.0645.6241,2.3286,2.3286,0,0,0,1.0752,2.1074,6.2562,6.2562,0,0,0,2.3652.9023c.3438.0576.68.1006,1.01.1289s.6387.043.9248.043q.517,0,1.2256-.0645t1.44-.1933a7.9224,7.9224,0,0,0,2.5156-1.0108,2.3057,2.3057,0,0,0,1.14-2.0849,1.4993,1.4993,0,0,0-1.0967-1.4619,11.86,11.86,0,0,0-2.3857-.6455c-.2871-.0577-.5664-.1006-.84-.1289-.2715-.0284-.5234-.0577-.7519-.086-.1719-.0293-.33-.0508-.4727-.0644a2.7574,2.7574,0,0,1-.3867-.0645,1.0239,1.0239,0,0,1-.1934-.0215.9857.9857,0,0,0-.1943-.0215q-.7734-.1288-1.7842-.2578t-2.0429-.3437a13.8376,13.8376,0,0,1-3.8047-1.377,3.1463,3.1463,0,0,1-1.7422-2.9668,3.2579,3.2579,0,0,1,1.247-2.8593,9.5624,9.5624,0,0,1,2.8809-1.3545,10.11,10.11,0,0,1-3.2461-2.2364,4.8877,4.8877,0,0,1-1.44-3.5683,5.72,5.72,0,0,1,2.43-5.01,12.3825,12.3825,0,0,1,5.3965-2.1279q.5155-.0864,1.0742-.13c.373-.0273.7314-.043,1.0752-.043.2861,0,.5732.0078.86.0215q.4293.0234.9024.0645a14.6124,14.6124,0,0,1,2.7949.624,9.52,9.52,0,0,1,2.58,1.3115Zm-4.6436,4.9883c0-.1728-.0068-.38-.0215-.624s-.0361-.48-.0644-.709a5.1133,5.1133,0,0,0-.7315-1.957,1.9792,1.9792,0,0,0-1.8056-.8818,2.3225,2.3225,0,0,0-2.1924,1.1181,5.5557,5.5557,0,0,0-.7315,2.4512,1.4355,1.4355,0,0,0-.0429.3437v.3448c0,.2.0068.4013.0215.6015s.0361.416.0644.6455a5.4629,5.4629,0,0,0,.7744,2.085,2.4339,2.4339,0,0,0,3.8692.0215,5.3237,5.3237,0,0,0,.7744-2.1065q.0424-.3442.0644-.667c.0147-.2148.0215-.4228.0215-.623ZM588,158.0342a16.1624,16.1624,0,0,1,3.3535-2.2793,8.7306,8.7306,0,0,1,3.9561-.86,6.5953,6.5953,0,0,1,4.9668,1.7207,6.8545,6.8545,0,0,1,1.6553,4.9444v7.2246a6.7542,6.7542,0,0,0,.3222,2.5371q.3223.6885,2.1719.6875h.5156v2.5371H592.1694v-2.5371q1.6349.0439,2.1075-.5391a3.3329,3.3329,0,0,0,.4726-2.05v-6.8164a5.2191,5.2191,0,0,0-.5156-2.3945,2.176,2.176,0,0,0-2.15-1.0137,3.7505,3.7505,0,0,0-3.2246,1.333,5.6944,5.6944,0,0,0-.9883,3.4824v4.7735a5.7958,5.7958,0,0,0,.3867,2.4512q.3867.7734,2.2364.7734v2.5371H577.7222v-2.5371q2.0214.0439,2.5156-.6035a4.5264,4.5264,0,0,0,.4941-2.5459v-8.626a1.3746,1.3746,0,0,0-.73-1.3809,4.889,4.889,0,0,0-1.6348-.4316H577.55v-2.666a.3351.3351,0,0,0,.15.043h.1074a.3361.3361,0,0,0,.15.0429h.1074q.8174,0,1.6133-.0215.7939-.02,1.5684-.0644,1.5907-.085,3.2041-.2363t3.1611-.4082a13.4063,13.4063,0,0,1,.2578,1.4834q.0849.7529.1289,1.4833Zm42.4414,7.1377a9.04,9.04,0,0,1-3.5049,7.6543,13.0915,13.0915,0,0,1-8.1484,2.666,13.2507,13.2507,0,0,1-8.1709-2.6445,8.9182,8.9182,0,0,1-3.5254-7.59,9.1233,9.1233,0,0,1,3.4824-7.6758,12.9949,12.9949,0,0,1,8.17-2.6875,13.1977,13.1977,0,0,1,8.2138,2.6446,9.0526,9.0526,0,0,1,3.4834,7.6757Zm-7.9336-1.3975q-.0234-.7089-.0644-1.44a8.44,8.44,0,0,0-.9248-3.1387,2.7729,2.7729,0,0,0-2.6875-1.4189,2.8889,2.8889,0,0,0-2.7744,1.4619,8.3664,8.3664,0,0,0-.9668,3.2246q-.0865.6885-.1075,1.3545t-.0215,1.2685q0,.6021.0215,1.3545t.1075,1.4834a8.7811,8.7811,0,0,0,.9453,3.2461,2.87,2.87,0,0,0,2.7959,1.4844,2.7491,2.7491,0,0,0,2.709-1.4619,9.0812,9.0812,0,0,0,.9033-3.1826q.0409-.6446.0644-1.2471.0205-.6021.0215-1.1611v-.5586C622.5288,164.6709,622.521,164.2471,622.5073,163.7744Zm32.916-5.74a16.163,16.163,0,0,1,3.3536-2.2793,8.73,8.73,0,0,1,3.956-.86,6.5953,6.5953,0,0,1,4.9668,1.7207,6.8545,6.8545,0,0,1,1.6553,4.9444v7.2246a6.7542,6.7542,0,0,0,.3222,2.5371q.3224.6885,2.1719.6875h.5156v2.5371H659.5933v-2.5371q1.6347.0439,2.1074-.5391a3.3329,3.3329,0,0,0,.4726-2.05v-6.8164a5.2178,5.2178,0,0,0-.5156-2.3945,2.1758,2.1758,0,0,0-2.15-1.0137,3.7505,3.7505,0,0,0-3.2246,1.333,5.695,5.695,0,0,0-.9883,3.4824v4.7735a5.7939,5.7939,0,0,0,.3868,2.4512q.3867.7734,2.2363.7734v2.5371H645.146v-2.5371q2.0216.0439,2.5156-.6035a4.5263,4.5263,0,0,0,.4942-2.5459v-8.626a1.3747,1.3747,0,0,0-.7305-1.3809,4.8884,4.8884,0,0,0-1.6348-.4316h-.8164v-2.666a.3354.3354,0,0,0,.15.043h.1074a.3368.3368,0,0,0,.15.0429h.1074q.8175,0,1.6133-.0215.794-.02,1.5684-.0644,1.5908-.085,3.2041-.2363t3.1611-.4082a13.4063,13.4063,0,0,1,.2578,1.4834q.085.7529.1289,1.4833Zm37.1514,10.4922,3.1826,1.0742a10.4285,10.4285,0,0,1-4.0859,4.4082,11.5259,11.5259,0,0,1-5.8477,1.4834,12.14,12.14,0,0,1-8.041-2.6875q-3.2256-2.688-3.2246-7.7617a8.9792,8.9792,0,0,1,3.375-7.5039,12.55,12.55,0,0,1,7.9766-2.6446q4.7724,0,7.2675,2.8379a11.094,11.094,0,0,1,2.5372,7.4824H682.5132v.7266a11.4973,11.4973,0,0,0,.8594,4.2949q.8173,1.9453,3.7841,1.9444a5.1527,5.1527,0,0,0,3.2256-1.0537,8.0113,8.0113,0,0,0,2.1924-2.5577Zm-3.6982-6.1494a.121.121,0,0,1,.0429-.086v-.56a6.2775,6.2775,0,0,0-.666-2.6875,3.0144,3.0144,0,0,0-4.8594.0108,8.6415,8.6415,0,0,0-.7519,2.6836q-.0439.2139-.0645.3838a2.4993,2.4993,0,0,0-.0214.3408h6.32ZM711.71,174.5459H698.5093v-2.58a3.5475,3.5475,0,0,0,2.4511-.5156,3.5882,3.5882,0,0,0,.5586-2.4082V150.2939a3.527,3.527,0,0,0-.2363-1.29q-.2373-.6021-1.1406-.6016h-1.8047v-2.666a27.2847,27.2847,0,0,0,3.9121-.1943q1.9351-.2358,3.87-.58.6461-.1288,1.29-.2363t1.29-.2363v24.2568a4.6979,4.6979,0,0,0,.4736,2.6836q.4717.5361,2.5371.5361ZM517.48,218.7314H514.9a5.51,5.51,0,0,0-1.6768-2.7949,4.47,4.47,0,0,0-3.0957-1.1172,1.9588,1.9588,0,0,0-.28.0215,1.6557,1.6557,0,0,0-.2793.0645,2.4275,2.4275,0,0,0-.8594.43.9786.9786,0,0,0-.3877.8173,1.2777,1.2777,0,0,0,.4736,1.01,5.639,5.639,0,0,0,1.0313.71c.1728.0859.3369.165.4951.2363a4.7136,4.7136,0,0,1,.4512.2363c.1435.086.2861.1719.43.2578a3.0608,3.0608,0,0,0,.4306.2159,2.6487,2.6487,0,0,0,.4727.3007,4.9937,4.9937,0,0,1,.5166.3008,21.7572,21.7572,0,0,1,3.8047,2.709,5.9531,5.9531,0,0,1-.2149,8.6211,7.5949,7.5949,0,0,1-4.5791,1.7422,12.5063,12.5063,0,0,1-3.3545-.4522,6.6273,6.6273,0,0,1-2.8808-1.6552l-.7305,1.1611h-2.7519v-7.1807h2.7519a11.748,11.748,0,0,0,2.1709,3.6973A4.7231,4.7231,0,0,0,510.6,229.74a2.6279,2.6279,0,0,0,1.3545-.3662,1.2664,1.2664,0,0,0,.624-1.1816,1.7267,1.7267,0,0,0-.581-1.2256,8.1851,8.1851,0,0,0-1.4834-1.14q-.6885-.4292-1.5479-.86-.8613-.4292-1.72-.9033a19.8947,19.8947,0,0,1-3.6768-2.6016,4.78,4.78,0,0,1-1.6552-3.7187A5.0813,5.0813,0,0,1,504,213.4863a7.3854,7.3854,0,0,1,4.58-1.5918,12.4815,12.4815,0,0,1,2.9883.3662,14.2831,14.2831,0,0,1,2.8164,1.01l.5156-1.4189h2.58Zm24.4892,12.9434q-2.4741.1288-4.9238.43a5.5837,5.5837,0,0,1-.1933-.7305c-.043-.23-.0938-.458-.15-.6885q-.0439-.3427-.086-.7089a6.3077,6.3077,0,0,1-.0429-.753,8.1946,8.1946,0,0,1-3.2686,2.5371,10.8078,10.8078,0,0,1-4.085.7315q-3.57,0-5.1816-1.7852a7.6168,7.6168,0,0,1-1.6123-5.2675v-7.6963a2.5123,2.5123,0,0,0-.5156-1.8282,2.7575,2.7575,0,0,0-1.8926-.4941v-2.666H529.52v11.6426a6.3092,6.3092,0,0,0,.6455,2.6728,2.3849,2.3849,0,0,0,2.3653,1.208,3.3888,3.3888,0,0,0,2.9668-1.333,5.3606,5.3606,0,0,0,.9453-3.1826v-6.1914q0-1.5483-.795-1.85a6.49,6.49,0,0,0-2.2148-.3008v-2.666h10.1484v13.8828q0,1.5528.6446,1.9619a3.5669,3.5669,0,0,0,1.8926.4092h.8164v2.5371Q544.44,231.5459,541.9692,231.6748Zm30.8946-9.5029a9.04,9.04,0,0,1-3.5039,7.6543,13.092,13.092,0,0,1-8.1485,2.666,13.2486,13.2486,0,0,1-8.1709-2.6445,8.9156,8.9156,0,0,1-3.5254-7.59,9.1234,9.1234,0,0,1,3.4825-7.6758,12.9947,12.9947,0,0,1,8.17-2.6875,13.2,13.2,0,0,1,8.2138,2.6446,9.052,9.052,0,0,1,3.4825,7.6757Zm-7.9336-1.3975q-.0221-.7089-.0645-1.44a8.4168,8.4168,0,0,0-.9238-3.1387,2.7729,2.7729,0,0,0-2.6875-1.4189,2.8881,2.8881,0,0,0-2.7744,1.4619,8.3664,8.3664,0,0,0-.9668,3.2246q-.0864.6885-.1074,1.3545t-.0215,1.2685q0,.6021.0215,1.3545t.1074,1.4834a8.783,8.783,0,0,0,.9453,3.2461,2.8706,2.8706,0,0,0,2.7959,1.4844,2.75,2.75,0,0,0,2.709-1.4619,9.078,9.078,0,0,0,.9023-3.1826q.0425-.6446.0645-1.2471t.0215-1.1611v-.5586C564.9517,221.6709,564.9448,221.2471,564.93,220.7744Zm32.1426-8.707a7.9515,7.9515,0,0,1,.4511,1.5049,11.2986,11.2986,0,0,1,.1934,1.5478,12.8173,12.8173,0,0,1,2.5371-2.2363,5.5661,5.5661,0,0,1,3.1826-.9893,3.24,3.24,0,0,1,2.4717,1.0323,3.5145,3.5145,0,0,1,.9678,2.4941,3.4275,3.4275,0,0,1-.86,2.3223,3.2158,3.2158,0,0,1-2.1924,1.1181H603.35a4.1493,4.1493,0,0,1-1.0957-.2373,1.8348,1.8348,0,0,1-.8818-.666,1,1,0,0,1-.15-.1934,1.0512,1.0512,0,0,0-.15-.1933c-.1436-.1729-.2949-.3369-.4522-.4951a.7886.7886,0,0,0-.58-.2364,1.59,1.59,0,0,0-1.0967.4512,4.6912,4.6912,0,0,0-.8379,1.0108,3.3532,3.3532,0,0,0-.2158.3222c-.0577.1016-.1143.209-.1719.3233v7.4814q0,1.6773.6455,2a4.4384,4.4384,0,0,0,1.5908.4082h.086a5.1174,5.1174,0,0,1,.6669.043,4.5634,4.5634,0,0,1,.6231.1289v2.5371H587.3979v-2.5371a2.1442,2.1442,0,0,0,.43-.043,2.4371,2.4371,0,0,1,.4727-.0429.4671.4671,0,0,0,.15-.0215.4651.4651,0,0,1,.1514-.0225,4.3162,4.3162,0,0,0,1.333-.3662,1.1708,1.1708,0,0,0,.6015-1.1856V218.876q0-1.768-.5586-2.1983a3.7873,3.7873,0,0,0-1.8926-.5615,3.0669,3.0669,0,0,0-.3437-.0644,2.9072,2.9072,0,0,0-.3438-.0215v-2.6309a39.2612,39.2612,0,0,0,4.88-.3867q2.4288-.3427,4.795-.9023Zm29.8418,13.459,3.1816,1.0742a10.4322,10.4322,0,0,1-4.085,4.4082,11.5258,11.5258,0,0,1-5.8476,1.4834,12.1381,12.1381,0,0,1-8.041-2.6875q-3.2256-2.688-3.2256-7.7617a8.9774,8.9774,0,0,1,3.3759-7.5039,12.55,12.55,0,0,1,7.9766-2.6446q4.7726,0,7.2666,2.8379a11.0944,11.0944,0,0,1,2.5371,7.4824H616.8521v.7266a11.5193,11.5193,0,0,0,.86,4.2949q.8159,1.9453,3.7842,1.9444a5.15,5.15,0,0,0,3.2246-1.0537,8.0032,8.0032,0,0,0,2.1934-2.5577Zm-3.6983-6.1494a.1212.1212,0,0,1,.043-.086v-.56a6.2789,6.2789,0,0,0-.666-2.6875,3.0144,3.0144,0,0,0-4.8594.0108,8.6671,8.6671,0,0,0-.7529,2.6836q-.0426.2139-.0645.3838a2.67,2.67,0,0,0-.0215.3408h6.3213Zm27.7783-5.504a5.4887,5.4887,0,0,1,1.5264-1.3974,3.6916,3.6916,0,0,1,1.999-.5811,3.3948,3.3948,0,0,1,1.9571.6026,2.0657,2.0657,0,0,1,.9248,1.72,2.7565,2.7565,0,0,1-.4307,1.5264,1.84,1.84,0,0,1-1.5049.7529,2.0237,2.0237,0,0,1-1.29-.3008,2.8748,2.8748,0,0,1-.5586-.6455.1271.1271,0,0,0-.043-.0859.9856.9856,0,0,1-.0644-.15.3016.3016,0,0,0-.0645-.1074.1216.1216,0,0,1-.043-.086.7485.7485,0,0,0-.1084-.0859.6847.6847,0,0,1-.1074-.086.0872.0872,0,0,1-.0644-.0214.0872.0872,0,0,0-.0645-.0215l-.043-.043a.87.87,0,0,0-.4082.2148,1.6407,1.6407,0,0,0-.3222.3868.123.123,0,0,0-.043.0859,4.9576,4.9576,0,0,1,.7734,1.5264,5.754,5.754,0,0,1,.2578,1.6982,5.65,5.65,0,0,1-1.3115,3.7842,8.05,8.05,0,0,1-3.332,2.3223,9.116,9.116,0,0,1-2.2363.58q-1.16.1524-2.3213.1944a3.07,3.07,0,0,1-.4951.0429h-.4942a4.2211,4.2211,0,0,0-.43.0215,4.2373,4.2373,0,0,1-.4306.0215c-.1143,0-.251.0068-.4082.0215a4.3925,4.3925,0,0,0-.4512.0644,1.955,1.955,0,0,0-.7744.2364.6252.6252,0,0,0-.3438.58q0,.6459,1.0967.9248a19.5068,19.5068,0,0,0,2.7305.4511q.8583.0879,1.7842.1944.9243.107,1.87.2793a15.5063,15.5063,0,0,1,5.1172,1.6982,4.5562,4.5562,0,0,1,2.3222,4.3643,6.1132,6.1132,0,0,1-2.6445,5.4394,14.4163,14.4163,0,0,1-5.8262,2.3008q-.7324.0849-1.4844.15t-1.44.0644q-.9022,0-2.0849-.0859a18.7371,18.7371,0,0,1-2.43-.3437,12.8868,12.8868,0,0,1-4.3428-1.6123,3.9059,3.9059,0,0,1-1.9785-3.5909,2.7436,2.7436,0,0,1,1.14-2.3437,4.9551,4.9551,0,0,1,2.5157-.9668h.7529a2.2532,2.2532,0,0,1,.4512.043,2.168,2.168,0,0,1,.7734.2148.5814.5814,0,0,1,.3447.5586,1.8973,1.8973,0,0,1-.0429.4082c-.0293.13-.0577.2646-.086.4092a.5382.5382,0,0,1-.043.1933.5123.5123,0,0,0-.0429.1934,3.1359,3.1359,0,0,0-.1944.623,3.1937,3.1937,0,0,0-.0644.6241,2.3286,2.3286,0,0,0,1.0752,2.1074,6.2562,6.2562,0,0,0,2.3652.9023q.5157.0864,1.0108.1289c.3291.0284.6377.043.9238.043q.5171,0,1.2256-.0645.71-.0644,1.44-.1933a7.913,7.913,0,0,0,2.5156-1.0108,2.3037,2.3037,0,0,0,1.14-2.0849,1.4994,1.4994,0,0,0-1.0967-1.4619,11.8442,11.8442,0,0,0-2.3857-.6455q-.4308-.0866-.8389-.1289c-.2725-.0284-.5234-.0577-.7529-.086-.1719-.0293-.3291-.0508-.4727-.0644a2.8031,2.8031,0,0,1-.3867-.0645,1.0327,1.0327,0,0,1-.1934-.0215.9857.9857,0,0,0-.1943-.0215q-.7734-.1288-1.7842-.2578t-2.042-.3437a13.8436,13.8436,0,0,1-3.8056-1.377,3.1477,3.1477,0,0,1-1.7422-2.9668,3.2579,3.2579,0,0,1,1.247-2.8593,9.5624,9.5624,0,0,1,2.8809-1.3545,10.121,10.121,0,0,1-3.2461-2.2364,4.8877,4.8877,0,0,1-1.44-3.5683,5.7193,5.7193,0,0,1,2.43-5.01,12.3826,12.3826,0,0,1,5.3964-2.1279q.5157-.0864,1.0752-.13c.3721-.0273.7305-.043,1.0743-.043.2871,0,.5732.0078.86.0215q.4291.0234.9033.0645a14.6472,14.6472,0,0,1,2.795.624,9.5334,9.5334,0,0,1,2.58,1.3115Zm-4.6445,4.9883c0-.1728-.0068-.38-.0215-.624s-.0361-.48-.0644-.709a5.1281,5.1281,0,0,0-.7305-1.957,1.981,1.981,0,0,0-1.8066-.8818,2.3236,2.3236,0,0,0-2.1924,1.1181,5.5544,5.5544,0,0,0-.7315,2.4512,1.4355,1.4355,0,0,0-.0429.3437v.3448c0,.2.0068.4013.0214.6015s.0362.416.0645.6455a5.4613,5.4613,0,0,0,.7744,2.085,2.4348,2.4348,0,0,0,3.87.0215,5.3363,5.3363,0,0,0,.7735-2.1065q.0425-.3442.0644-.667c.0147-.2148.0215-.4228.0215-.623Zm22.7041-3.8271a16.1624,16.1624,0,0,1,3.3535-2.2793,8.7333,8.7333,0,0,1,3.9561-.86,6.5938,6.5938,0,0,1,4.9668,1.7207,6.85,6.85,0,0,1,1.6552,4.9444v7.2246a6.7537,6.7537,0,0,0,.3223,2.5371q.3237.6885,2.1719.6875h.5156v2.5371h-12.77v-2.5371q1.6333.0439,2.1074-.5391a3.339,3.339,0,0,0,.4727-2.05v-6.8164a5.2191,5.2191,0,0,0-.5156-2.3945,2.1779,2.1779,0,0,0-2.15-1.0137,3.748,3.748,0,0,0-3.2246,1.333,5.6946,5.6946,0,0,0-.9893,3.4824v4.7735a5.7958,5.7958,0,0,0,.3867,2.4512q.3867.7734,2.2363.7734v2.5371H658.7769v-2.5371q2.0214.0439,2.5156-.6035a4.5264,4.5264,0,0,0,.4941-2.5459v-8.626a1.3731,1.3731,0,0,0-.73-1.3809,4.89,4.89,0,0,0-1.6338-.4316h-.8174v-2.666a.3385.3385,0,0,0,.15.043h.1074a.34.34,0,0,0,.15.0429h.1074q.8174,0,1.6133-.0215t1.5693-.0644q1.5909-.085,3.2031-.2363t3.1612-.4082a12.9764,12.9764,0,0,1,.2578,1.4834q.0849.7529.1289,1.4833Zm42.44,7.1377a9.04,9.04,0,0,1-3.5039,7.6543,13.0915,13.0915,0,0,1-8.1484,2.666,13.2486,13.2486,0,0,1-8.1709-2.6445,8.9156,8.9156,0,0,1-3.5254-7.59,9.1233,9.1233,0,0,1,3.4824-7.6758,12.9949,12.9949,0,0,1,8.17-2.6875,13.2,13.2,0,0,1,8.2139,2.6446,9.0519,9.0519,0,0,1,3.4824,7.6757Zm-7.9336-1.3975q-.0219-.7089-.0644-1.44a8.4205,8.4205,0,0,0-.9238-3.1387,2.7729,2.7729,0,0,0-2.6875-1.4189,2.8882,2.8882,0,0,0-2.7745,1.4619,8.37,8.37,0,0,0-.9668,3.2246q-.0864.6885-.1074,1.3545t-.0215,1.2685q0,.6021.0215,1.3545t.1074,1.4834a8.7831,8.7831,0,0,0,.9454,3.2461,2.87,2.87,0,0,0,2.7959,1.4844,2.75,2.75,0,0,0,2.7089-1.4619,9.0781,9.0781,0,0,0,.9024-3.1826q.0425-.6446.0644-1.2471t.0215-1.1611v-.5586C703.5825,221.6709,703.5757,221.2471,703.561,220.7744Z" transform="translate(0 0)"/><path id="Unione_2" data-name="Unione 2" class="cls-4" d="M72.7906,223.8852V106.1162a13.5,13.5,0,1,1,5.142.248v117.273a13.5,13.5,0,1,1-5.142.248Z" transform="translate(0 0)"/><path id="Unione_2-2" data-name="Unione 2-2" class="cls-4" d="M744.7906,223.8852V106.1162a13.5,13.5,0,1,1,5.142.248v117.273a13.5,13.5,0,1,1-5.142.248Z" transform="translate(0 0)"/></g></svg>